<svg width="400" height="200" viewBox="0 0 400 200" xmlns="http://www.w3.org/2000/svg">
  <defs>
    <linearGradient id="securityGradient" x1="0%" y1="0%" x2="100%" y2="100%">
      <stop offset="0%" style="stop-color:#ff6b6b;stop-opacity:1" />
      <stop offset="100%" style="stop-color:#ee5a24;stop-opacity:1" />
    </linearGradient>
  </defs>
  
  <!-- Background -->
  <rect width="400" height="200" fill="url(#securityGradient)"/>
  
  <!-- Shield -->
  <path d="M200 50 L240 70 L240 130 C240 150 220 170 200 180 C180 170 160 150 160 130 L160 70 Z" fill="white" opacity="0.8"/>
  <path d="M200 60 L230 75 L230 125 C230 140 215 155 200 165 C185 155 170 140 170 125 L170 75 Z" fill="none" stroke="white" stroke-width="2" opacity="0.6"/>
  
  <!-- Lock -->
  <rect x="185" y="100" width="30" height="25" fill="white" opacity="0.9"/>
  <circle cx="200" cy="95" r="8" fill="white" opacity="0.9"/>
  
  <!-- Security elements -->
  <circle cx="80" cy="90" r="12" fill="white" opacity="0.4"/>
  <circle cx="320" cy="90" r="12" fill="white" opacity="0.4"/>
  <circle cx="80" cy="130" r="8" fill="white" opacity="0.3"/>
  <circle cx="320" cy="130" r="8" fill="white" opacity="0.3"/>
  
  <!-- Binary code -->
  <text x="50" y="160" font-family="monospace" font-size="10" fill="white" opacity="0.6">101010</text>
  <text x="300" y="160" font-family="monospace" font-size="10" fill="white" opacity="0.6">010101</text>
  
  <!-- Title -->
  <text x="200" y="185" text-anchor="middle" font-family="Arial, sans-serif" font-size="14" fill="white" opacity="0.8">Cybersecurity 2024</text>
</svg> 